<?xml version="1.0" standalone="no"?>
<!DOCTYPE svg PUBLIC "-//W3C//DTD SVG 20010904//EN"
 "http://www.w3.org/TR/2001/REC-SVG-20010904/DTD/svg10.dtd">
<svg version="1.0" xmlns="http://www.w3.org/2000/svg"
 width="300.000000pt" height="88.000000pt" viewBox="0 0 300.000000 88.000000"
 preserveAspectRatio="xMidYMid meet">
<metadata>
Created by potrace 1.10, written by Peter Selinger 2001-2011
</metadata>
<g transform="translate(0.000000,88.000000) scale(0.100000,-0.100000)"
fill="#000000" stroke="none">
<path d="M290 787 c-48 -16 -107 -77 -120 -128 -7 -26 -10 -110 -8 -225 l3
-182 30 -43 c56 -80 71 -84 307 -84 l206 0 44 30 c23 17 53 49 65 70 21 38 23
52 23 228 0 211 -6 239 -66 294 -20 18 -53 37 -73 43 -48 13 -367 11 -411 -3z
m454 -51 c62 -47 68 -72 64 -291 -3 -212 -5 -220 -72 -269 -26 -20 -41 -21
-236 -21 -195 0 -210 1 -236 21 -66 49 -69 58 -72 257 -4 210 -1 235 35 278
47 55 67 59 284 56 l196 -2 37 -29z"/>
<path d="M435 616 c-28 -19 -57 -46 -64 -59 -21 -39 -6 -92 34 -124 l33 -27
-31 -16 c-53 -29 -44 -58 31 -97 57 -30 92 -34 92 -12 0 5 6 9 14 9 7 0 19 7
26 15 7 9 15 13 18 11 12 -12 52 54 52 87 0 36 -32 87 -55 87 -7 0 -15 9 -18
20 -4 15 0 20 14 20 11 0 22 7 25 15 9 21 -4 65 -19 65 -6 0 -23 9 -37 20 -35
27 -58 25 -115 -14z m85 -7 c4 -20 11 -24 40 -24 50 0 48 -29 -2 -33 -36 -3
-38 -5 -38 -38 0 -24 5 -34 15 -34 25 0 66 -31 76 -57 16 -44 -22 -93 -71 -93
-12 0 -20 -8 -22 -22 -4 -29 -32 -30 -36 -1 -3 19 -11 22 -50 25 -34 2 -47 7
-47 18 0 12 10 14 46 12 l47 -3 4 40 c3 34 0 41 -14 41 -56 0 -98 57 -76 105
11 24 62 50 79 39 5 -3 9 6 9 19 0 44 31 49 40 6z"/>
<path d="M433 543 c-30 -12 -6 -63 29 -63 14 0 18 8 18 35 0 35 -12 43 -47 28z"/>
<path d="M518 400 c4 -42 11 -47 43 -30 36 20 17 70 -26 70 -18 0 -20 -5 -17
-40z"/>
<path d="M1054 634 c-105 -36 -148 -185 -80 -282 51 -74 124 -91 209 -48 45
22 47 23 63 5 21 -23 67 -25 84 -4 7 8 18 15 25 15 7 0 18 -7 25 -15 15 -18
53 -20 81 -4 16 8 30 7 60 -5 50 -20 80 -20 124 1 34 16 37 16 65 0 23 -14 42
-16 94 -11 l64 7 26 -42 c35 -55 73 -57 112 -6 14 19 32 35 38 35 6 0 28 9 49
20 34 19 40 19 60 5 47 -33 97 -12 111 47 6 27 21 35 76 41 20 2 26 -3 28 -25
2 -16 18 -40 38 -57 33 -29 37 -30 110 -26 41 2 79 7 84 10 6 3 7 -1 4 -10 -8
-20 21 -64 49 -74 30 -11 73 6 96 38 11 15 38 80 60 146 38 108 40 120 26 141
-23 35 -53 40 -87 14 l-30 -22 -30 22 c-27 20 -34 21 -69 11 -27 -8 -45 -9
-58 -1 -25 13 -97 13 -121 0 -16 -8 -23 -5 -41 19 -32 44 -76 61 -156 61 -60
0 -73 -3 -92 -24 -12 -13 -23 -33 -24 -45 -1 -19 -5 -21 -27 -16 -14 4 -56 8
-95 10 -53 2 -74 -1 -88 -13 -17 -15 -21 -15 -49 1 -40 23 -102 22 -148 -4
l-38 -22 -28 22 c-35 28 -95 28 -145 -1 -35 -20 -40 -20 -56 -6 -10 9 -31 20
-48 24 -16 4 -44 22 -61 41 -36 38 -61 42 -92 13 -22 -20 -22 -20 -60 -1 -52
27 -92 31 -138 15z m123 -50 c13 -8 30 -28 38 -44 l16 -30 -30 0 c-19 0 -40
10 -56 26 -26 26 -55 26 -83 -1 -20 -18 -27 -90 -12 -125 20 -47 86 -55 105
-12 7 16 18 22 43 22 l33 0 -22 -39 c-25 -46 -54 -61 -114 -61 -35 0 -49 6
-74 30 -48 49 -55 153 -13 209 35 48 114 60 169 25z m143 -28 l0 -44 29 14
c34 17 74 6 90 -25 6 -11 11 -56 11 -100 l0 -81 -30 0 -29 0 -3 82 c-3 73 -5
83 -22 86 -32 6 -46 -26 -46 -101 0 -68 0 -68 -26 -65 l-26 3 -1 138 -2 137
28 0 c25 0 27 -3 27 -44z m1035 19 c32 -31 34 -91 5 -122 -19 -21 -88 -38
-120 -31 -12 2 -14 -7 -12 -50 l4 -53 -32 3 -32 3 -1 138 -2 137 83 0 c75 0
85 -2 107 -25z m-716 -58 c16 -14 41 -69 41 -92 0 -12 -14 -15 -71 -15 -60 0
-70 -2 -67 -16 6 -31 33 -39 71 -21 19 9 40 17 46 17 20 0 11 -28 -15 -49 -37
-29 -95 -28 -131 3 -54 47 -29 168 38 187 28 9 68 2 88 -14z m223 -5 c12 -13
17 -39 20 -105 l3 -87 -27 0 c-14 0 -28 6 -31 13 -4 10 -7 10 -18 0 -18 -18
-74 -16 -93 3 -21 21 -20 67 2 87 9 8 37 19 62 24 29 6 45 14 45 23 0 21 -53
26 -61 6 -6 -17 -64 -23 -64 -7 0 17 41 60 63 64 34 7 80 -3 99 -21z m238 -10
c35 -43 24 -136 -19 -169 -23 -17 -67 -16 -85 3 -15 14 -16 10 -16 -40 0 -56
0 -56 -30 -56 l-30 0 0 145 0 145 30 0 c24 0 28 -3 23 -17 -6 -17 -5 -17 13
-2 40 34 84 30 114 -9z m462 16 c19 -9 25 -39 31 -135 3 -63 3 -63 -24 -63
-15 0 -29 5 -31 10 -2 7 -14 6 -34 -1 -64 -25 -117 16 -95 73 7 20 21 30 53
39 24 6 49 13 56 15 6 2 12 10 12 19 0 20 -56 20 -64 0 -7 -20 -56 -20 -56 0
0 19 33 48 63 56 24 7 62 2 89 -13z m131 -66 c11 -40 22 -71 24 -69 2 2 11 35
21 73 17 66 19 69 49 72 l32 3 -30 -83 c-69 -193 -78 -208 -128 -208 -16 0
-21 6 -21 25 0 18 5 25 19 25 11 0 21 6 23 12 4 10 -32 121 -68 211 -6 16 -2
18 27 15 32 -3 33 -5 52 -76z m-1546 34 l28 -24 -25 -21 c-34 -29 -64 -23 -68
12 -3 27 12 57 29 57 4 0 20 -11 36 -24z"/>
<path d="M2220 511 c0 -41 0 -41 39 -41 44 0 64 18 59 52 -3 20 -10 23 -50 26
l-48 3 0 -40z"/>
<path d="M1552 478 c-21 -21 -13 -28 28 -28 22 0 40 4 40 8 0 14 -23 32 -40
32 -9 0 -21 -5 -28 -12z"/>
<path d="M1780 411 c-34 -9 -34 -45 -1 -49 25 -4 51 19 51 45 0 14 -11 15 -50
4z"/>
<path d="M1996 474 c-30 -30 -12 -114 25 -114 17 0 49 40 49 63 0 28 -26 67
-45 67 -7 0 -21 -7 -29 -16z"/>
<path d="M2490 411 c-35 -10 -41 -51 -8 -51 29 0 48 17 48 42 0 19 -2 20 -40
9z"/>
</g>
</svg>
